<svg version="1.1" id="Layer_1" xmlns="http://www.w3.org/2000/svg" xmlns:xlink="http://www.w3.org/1999/xlink" x="0px" y="0px"
	 width="100%" viewBox="0 0 529 420" enable-background="new 0 0 529 420" xml:space="preserve">
<path fill="#0C253B" opacity="1.000000" stroke="none" 
	d="
M288.000000,421.000000 
	C192.000000,421.000000 96.500000,421.000000 1.000000,421.000000 
	C1.000000,281.000000 1.000000,141.000000 1.000000,1.000000 
	C177.333328,1.000000 353.666656,1.000000 530.000000,1.000000 
	C530.000000,141.000000 530.000000,281.000000 530.000000,421.000000 
	C449.500000,421.000000 369.000000,421.000000 288.000000,421.000000 
M244.755981,213.954620 
	C251.577316,211.011429 258.398651,208.068237 265.946686,205.067322 
	C273.340332,201.397552 280.733948,197.727768 288.823456,193.949600 
	C295.493835,189.616089 302.164215,185.282578 309.347015,180.464508 
	C315.604889,175.326492 321.862762,170.188477 328.720795,164.771790 
	C334.938049,157.670059 341.280823,150.672028 347.289978,143.398361 
	C348.922546,141.422226 349.548431,138.614410 350.636322,136.188278 
	C348.206940,136.421051 345.742004,137.021301 343.357452,136.790665 
	C340.574188,136.521500 337.861115,135.526703 335.117584,134.846741 
	C336.060394,132.716080 336.980652,130.574982 337.960785,128.461624 
	C338.228271,127.884895 338.675690,127.391602 339.990692,125.475624 
	C337.258118,125.210640 335.173767,124.377731 333.646057,124.973099 
	C328.012848,127.168449 322.563843,129.836563 316.334320,132.548141 
	C305.278900,136.149567 294.223450,139.750977 282.346283,143.290756 
	C280.223145,143.854660 278.100037,144.418549 275.507080,144.825760 
	C275.054962,144.989456 274.602875,145.153137 273.326752,145.266754 
	C272.546112,145.508072 271.765472,145.749390 270.511993,145.832428 
	C270.057251,145.997711 269.602539,146.162979 268.337433,146.260330 
	C267.558289,146.460953 266.779114,146.661575 265.419159,146.706665 
	C264.663788,146.919800 263.908386,147.132935 262.491547,147.237167 
	C261.642334,147.443329 260.793152,147.649506 259.052795,147.728058 
	C251.368011,148.500717 243.683243,149.273376 235.193985,149.846756 
	C232.853180,150.014374 230.512390,150.181976 227.237015,150.188660 
	C223.452454,150.221848 219.667892,150.255051 215.157684,149.967728 
	C201.860413,148.734970 188.563156,147.502197 175.265884,146.269440 
	C184.871460,152.708191 195.556763,155.989120 207.549728,157.256973 
	C208.132248,157.254135 208.714783,157.251297 209.614426,157.660995 
	C210.417206,157.796982 211.220001,157.932968 212.632904,158.409821 
	C214.055801,159.259995 215.478683,160.110153 216.901566,160.960327 
	C216.795105,161.352737 216.688644,161.745163 216.582199,162.137573 
	C214.245102,161.864456 211.914169,161.486908 209.569122,161.348724 
	C207.387863,161.220169 204.421143,159.045578 203.531479,163.080429 
	C202.801086,166.392944 204.089493,168.152161 207.677948,168.940643 
	C212.355865,169.968491 217.023819,171.416809 221.404205,173.346680 
	C230.929764,177.543365 232.211273,182.185669 226.716385,190.907837 
	C225.214417,193.291916 223.550491,195.573959 221.379272,198.235825 
	C216.065201,203.006454 210.689529,207.711472 205.483261,212.596985 
	C204.282349,213.723877 203.661575,215.469009 202.483948,217.406601 
	C205.344574,217.942734 206.977386,218.248749 209.855652,218.788193 
	C203.539581,222.336914 198.330673,225.263580 193.121750,228.190247 
	C193.317856,228.708008 193.513962,229.225784 193.710068,229.743546 
	C204.755234,227.611649 215.548706,224.469986 226.932571,220.416840 
	C232.623520,218.279556 238.314484,216.142273 244.755981,213.954620 
M337.986389,221.714996 
	C343.048798,223.339920 348.085632,225.054291 353.194489,226.517044 
	C354.262573,226.822845 356.139008,226.600388 356.658600,225.895630 
	C357.202087,225.158401 356.985504,223.248322 356.367432,222.363449 
	C351.045898,214.745239 345.558350,207.243011 340.026550,199.278900 
	C340.026550,199.278900 339.673920,199.020065 339.592499,198.454651 
	C339.088013,197.909439 338.583557,197.364227 337.906677,196.164047 
	C335.882202,193.453735 333.857697,190.743423 331.714447,187.423874 
	C331.062958,186.639603 330.411499,185.855331 329.682037,184.474121 
	C329.157104,183.892181 328.632202,183.310257 327.911346,182.022141 
	C326.193573,178.113235 323.670624,177.649506 320.365936,180.199249 
	C318.974304,181.272995 317.490509,182.227280 315.384186,183.353485 
	C306.121429,189.548508 298.333466,197.194443 291.667267,207.035385 
	C300.139374,209.585342 308.018280,211.956757 316.419769,214.796783 
	C320.565430,216.054550 324.711121,217.312317 329.405640,218.951584 
	C332.079559,219.708038 334.753479,220.464508 337.986389,221.714996 
M287.764648,138.408524 
	C291.783508,136.770538 295.802338,135.132553 300.329010,133.287598 
	C295.872162,126.423523 292.016205,120.484917 288.003204,113.893608 
	C284.725403,108.748444 281.447632,103.603279 278.023254,97.814133 
	C273.252441,92.336098 269.726715,93.133301 266.141571,100.857262 
	C259.178314,114.058189 252.215057,127.259125 244.662125,141.577972 
	C255.080032,141.577972 263.941010,141.577972 273.505249,141.760391 
	C274.668274,141.484833 275.831299,141.209290 277.811188,141.027222 
	C280.892303,140.201889 283.973450,139.376572 287.764648,138.408524 
M160.301804,265.903198 
	C160.308807,271.565216 160.288330,277.227417 160.332047,282.889160 
	C160.363693,286.987640 162.327255,289.661713 166.521759,289.911652 
	C170.807434,290.167023 175.120148,289.968201 179.393234,289.968201 
	C180.578644,286.582672 180.110260,284.699402 176.395660,284.853546 
	C174.899643,284.915619 173.394455,284.782349 171.900574,284.865753 
	C167.214417,285.127563 165.981323,282.895416 167.437180,278.060822 
	C169.304031,278.060822 171.337448,278.381897 173.185760,277.935883 
	C174.231903,277.683411 174.974091,276.171417 175.853180,275.226715 
	C174.998413,274.460815 174.233032,273.209198 173.269928,273.031952 
	C171.371582,272.682617 169.363586,272.929016 167.101166,272.929016 
	C167.101166,270.437714 167.101166,268.543152 167.101166,266.832916 
	C171.959152,264.520752 178.674637,269.452087 181.571930,261.117767 
	C182.635925,263.926819 183.389771,265.749542 184.020905,267.613831 
	C186.156647,273.922180 188.140900,280.285034 190.443771,286.530945 
	C190.937515,287.870056 192.357025,289.191284 193.678360,289.766113 
	C194.344299,290.055847 196.385605,288.888000 196.714981,287.982666 
	C199.882309,279.277039 202.817169,270.486816 205.847931,261.635101 
	C199.607895,260.550812 199.613312,260.552551 198.059448,265.399323 
	C196.936874,268.900879 195.797485,272.397064 194.665588,275.895630 
	C192.863708,274.385620 192.494873,272.964508 191.770645,271.756500 
	C189.172729,267.423065 191.886292,257.811127 180.610184,262.112274 
	C175.976974,263.879547 169.749832,261.485199 164.250290,260.957397 
	C161.218292,260.666412 159.899948,261.986145 160.301804,265.903198 
M345.045837,274.505188 
	C345.045837,270.102966 345.045837,265.700745 345.045837,261.247681 
	C342.534393,261.247681 340.934021,261.247681 338.524780,261.247681 
	C338.524780,266.292175 338.524780,271.099487 338.524780,275.906769 
	C338.034943,276.039642 337.545074,276.172516 337.055237,276.305359 
	C334.618530,272.455933 331.988373,268.712494 329.803131,264.725220 
	C327.871857,261.201477 325.442444,260.033447 321.285614,261.797058 
	C321.285614,269.847290 321.305817,277.968567 321.272064,286.089600 
	C321.263123,288.237976 321.291229,290.050201 324.286102,290.059265 
	C327.489136,290.068939 327.632935,288.170441 327.576965,285.786041 
	C327.494080,282.253967 327.555542,278.718506 327.555542,275.184509 
	C328.063843,275.063904 328.572144,274.943298 329.080475,274.822693 
	C331.731293,278.936371 334.181976,283.202179 337.134796,287.086273 
	C338.262451,288.569550 340.540192,289.178558 342.293793,290.185974 
	C343.209503,288.446381 344.661469,286.782715 344.920898,284.950165 
	C345.359589,281.851562 345.043976,278.646179 345.045837,274.505188 
M257.305878,268.669189 
	C257.305878,266.248810 257.305878,263.828430 257.305878,260.998932 
	C254.801727,261.116180 253.098541,261.195953 250.702820,261.308136 
	C250.702820,266.657745 250.702820,271.483368 250.702820,276.308990 
	C246.949570,272.522491 244.206482,268.591064 241.898422,264.419006 
	C240.008530,261.002838 237.554916,260.210724 234.067810,261.533569 
	C234.067810,270.935181 234.067810,280.285248 234.067810,289.681519 
	C236.096252,289.681519 237.676392,289.681519 240.036194,289.681519 
	C240.036194,284.576385 240.036194,279.768707 240.036194,274.960999 
	C244.138565,279.100250 246.811478,283.659210 249.980835,287.841980 
	C250.951035,289.122406 253.370941,290.044800 254.958878,289.838379 
	C255.907486,289.715057 257.112488,287.112335 257.193115,285.571350 
	C257.470520,280.268433 257.303558,274.942322 257.305878,268.669189 
M351.192780,261.599243 
	C351.026428,269.407715 350.796997,277.215485 350.715424,285.024841 
	C350.659271,290.400604 351.023163,290.600891 356.025452,289.364227 
	C357.215790,286.276337 358.315552,283.423462 359.552826,280.213745 
	C364.901611,283.561310 364.974915,292.815430 373.842255,289.131775 
	C372.142029,286.527008 370.574524,284.209167 369.091431,281.838501 
	C363.673279,273.177765 363.617249,276.049805 369.117950,267.706543 
	C370.371490,265.805206 371.613800,263.896484 373.245300,261.404694 
	C363.265198,259.536133 364.004700,270.622314 357.379913,272.947815 
	C357.240784,270.323486 356.871216,268.059448 357.057648,265.842163 
	C357.394928,261.830414 355.893188,260.217407 351.192780,261.599243 
M209.136169,279.329102 
	C209.182098,287.163361 210.385727,289.497162 215.304138,289.879822 
	C219.579666,290.212433 223.901566,289.949066 228.138672,289.949066 
	C229.534668,286.512695 228.931442,284.743195 225.256454,284.869080 
	C223.758820,284.920380 222.257446,284.851105 220.758270,284.871887 
	C218.113922,284.908600 215.633896,284.813202 215.526596,281.181946 
	C215.412796,277.330597 218.226089,278.073792 220.398743,278.118317 
	C223.842529,278.188843 225.496445,277.079590 224.170166,273.260712 
	C223.166382,273.149200 222.188232,273.075348 221.221680,272.926300 
	C218.901917,272.568451 215.532059,274.237640 215.469101,269.649933 
	C215.401550,264.725494 218.999512,266.363953 221.476440,266.162079 
	C223.744675,265.977142 226.039856,266.122772 228.467743,266.122772 
	C228.467743,264.120178 228.467743,262.742889 228.467743,261.247070 
	C221.988358,261.247070 215.884232,261.247070 209.135880,261.247070 
	C209.135880,267.127563 209.135880,272.750183 209.136169,279.329102 
M261.811401,265.967163 
	C263.766602,266.127899 265.721802,266.288635 268.251892,266.496643 
	C268.251892,274.304413 268.251892,281.870453 268.251892,289.363495 
	C272.957062,290.846436 274.990021,289.958679 274.725403,285.049438 
	C274.396484,278.947510 274.646545,272.814362 274.646545,266.480042 
	C276.469299,266.335358 277.886627,266.521759 279.034668,266.051147 
	C280.283569,265.539154 281.282318,264.416870 282.390137,263.560699 
	C281.280731,262.696259 280.200867,261.132843 279.057007,261.084534 
	C273.105286,260.833008 267.137299,260.967346 260.534607,260.967346 
	C260.774536,262.890839 260.946625,264.270599 261.811401,265.967163 
M292.620880,262.576080 
	C290.857910,261.941620 289.094971,261.307190 286.438568,260.351196 
	C286.438568,267.346741 286.430847,273.108948 286.440369,278.871155 
	C286.456238,288.495758 288.009338,290.201599 297.808746,289.889496 
	C300.176208,289.814148 304.811981,292.400940 304.760406,287.366943 
	C304.715210,282.955933 300.367737,284.995148 298.029114,285.008301 
	C293.801147,285.032043 292.473358,283.327301 292.641357,279.323853 
	C292.863831,274.021515 292.685394,268.702362 292.620880,262.576080 
M315.626129,273.524536 
	C315.626129,269.470001 315.626129,265.415497 315.626129,261.218140 
	C313.151550,261.218140 311.547729,261.218140 309.612457,261.218140 
	C309.612457,270.803101 309.612457,280.147217 309.612457,289.545959 
	C314.141479,290.886108 316.092773,289.669769 315.684509,284.943176 
	C315.386292,281.490326 315.626129,277.991028 315.626129,273.524536 
z"/>
<path fill="#DBB833" opacity="1.000000" stroke="none" 
	d="
M160.302368,265.457153 
	C159.899948,261.986145 161.218292,260.666412 164.250290,260.957397 
	C169.749832,261.485199 175.976974,263.879547 180.610184,262.112274 
	C191.886292,257.811127 189.172729,267.423065 191.770645,271.756500 
	C192.494873,272.964508 192.863708,274.385620 194.665588,275.895630 
	C195.797485,272.397064 196.936874,268.900879 198.059448,265.399323 
	C199.613312,260.552551 199.607895,260.550812 205.847931,261.635101 
	C202.817169,270.486816 199.882309,279.277039 196.714981,287.982666 
	C196.385605,288.888000 194.344299,290.055847 193.678360,289.766113 
	C192.357025,289.191284 190.937515,287.870056 190.443771,286.530945 
	C188.140900,280.285034 186.156647,273.922180 184.020905,267.613831 
	C183.389771,265.749542 182.635925,263.926819 181.571930,261.117767 
	C178.674637,269.452087 171.959152,264.520752 167.101166,266.832916 
	C167.101166,268.543152 167.101166,270.437714 167.101166,272.929016 
	C169.363586,272.929016 171.371582,272.682617 173.269928,273.031952 
	C174.233032,273.209198 174.998413,274.460815 175.853180,275.226715 
	C174.974091,276.171417 174.231903,277.683411 173.185760,277.935883 
	C171.337448,278.381897 169.304031,278.060822 167.437180,278.060822 
	C165.981323,282.895416 167.214417,285.127563 171.900574,284.865753 
	C173.394455,284.782349 174.899643,284.915619 176.395660,284.853546 
	C180.110260,284.699402 180.578644,286.582672 179.393234,289.968201 
	C175.120148,289.968201 170.807434,290.167023 166.521759,289.911652 
	C162.327255,289.661713 160.363693,286.987640 160.332047,282.889160 
	C160.288330,277.227417 160.308807,271.565216 160.302368,265.457153 
z"/>
<path fill="#CC4620" opacity="1.000000" stroke="none" 
	d="
M221.960876,197.902817 
	C223.550491,195.573959 225.214417,193.291916 226.716385,190.907837 
	C232.211273,182.185669 230.929764,177.543365 221.404205,173.346680 
	C217.023819,171.416809 212.355865,169.968491 207.677948,168.940643 
	C204.089493,168.152161 202.801086,166.392944 203.531479,163.080429 
	C204.421143,159.045578 207.387863,161.220169 209.569122,161.348724 
	C211.914169,161.486908 214.245102,161.864456 216.582199,162.137573 
	C216.688644,161.745163 216.795105,161.352737 216.901566,160.960327 
	C215.478683,160.110153 214.055801,159.259995 212.027344,158.036896 
	C210.713623,157.525467 210.005463,157.386948 209.297302,157.248444 
	C208.714783,157.251297 208.132248,157.254135 206.990143,156.924042 
	C205.392853,155.346481 204.355118,154.101868 203.317398,152.857254 
	C204.715576,152.242340 206.062500,151.325241 207.522964,151.077515 
	C210.275192,150.610718 213.092865,150.529663 215.883331,150.288254 
	C219.667892,150.255051 223.452454,150.221848 228.019669,150.412811 
	C230.209381,150.772202 231.616455,150.907440 233.015182,151.463028 
	C233.000504,153.284988 232.994171,154.686630 232.597809,156.140121 
	C230.548981,156.843948 228.890167,157.495895 227.231354,158.147842 
	C228.156509,159.124603 229.081680,160.101349 230.016724,161.471313 
	C232.111969,167.750717 234.083771,173.681900 236.383041,179.483307 
	C236.818207,180.581314 238.553741,181.163940 239.750916,182.363159 
	C238.487991,191.937149 232.576218,198.171646 225.732483,203.933105 
	C224.246796,201.861221 223.103836,199.882019 221.960876,197.902817 
z"/>
<path fill="#DFBB33" opacity="1.000000" stroke="none" 
	d="
M345.045685,274.995422 
	C345.043976,278.646179 345.359589,281.851562 344.920898,284.950165 
	C344.661469,286.782715 343.209503,288.446381 342.293793,290.185974 
	C340.540192,289.178558 338.262451,288.569550 337.134796,287.086273 
	C334.181976,283.202179 331.731293,278.936371 329.080475,274.822693 
	C328.572144,274.943298 328.063843,275.063904 327.555542,275.184509 
	C327.555542,278.718506 327.494080,282.253967 327.576965,285.786041 
	C327.632935,288.170441 327.489136,290.068939 324.286102,290.059265 
	C321.291229,290.050201 321.263123,288.237976 321.272064,286.089600 
	C321.305817,277.968567 321.285614,269.847290 321.285614,261.797058 
	C325.442444,260.033447 327.871857,261.201477 329.803131,264.725220 
	C331.988373,268.712494 334.618530,272.455933 337.055237,276.305359 
	C337.545074,276.172516 338.034943,276.039642 338.524780,275.906769 
	C338.524780,271.099487 338.524780,266.292175 338.524780,261.247681 
	C340.934021,261.247681 342.534393,261.247681 345.045837,261.247681 
	C345.045837,265.700745 345.045837,270.102966 345.045685,274.995422 
z"/>
<path fill="#E87D22" opacity="1.000000" stroke="none" 
	d="
M317.045563,132.326904 
	C322.563843,129.836563 328.012848,127.168449 333.646057,124.973099 
	C335.173767,124.377731 337.258118,125.210640 339.990692,125.475624 
	C338.675690,127.391602 338.228271,127.884895 337.960785,128.461624 
	C336.980652,130.574982 336.060394,132.716080 335.117584,134.846741 
	C337.861115,135.526703 340.574188,136.521500 343.357452,136.790665 
	C345.742004,137.021301 348.206940,136.421051 350.636353,136.188293 
	C349.548431,138.614410 348.922546,141.422226 347.289978,143.398361 
	C341.280823,150.672028 334.938049,157.670059 328.091339,164.788391 
	C326.319061,162.574997 325.176208,160.344986 324.075470,157.837952 
	C324.092682,157.375793 324.067780,157.190674 324.016022,157.007736 
	C323.989136,157.009933 324.003326,157.061996 324.428070,156.867798 
	C324.908569,155.928513 324.964325,155.183426 325.227661,154.373016 
	C325.952484,154.051743 326.469757,153.795792 327.368286,153.636322 
	C328.185486,153.148895 328.621460,152.564957 329.029938,151.983398 
	C329.002472,151.985794 329.000946,152.040909 329.260529,152.155212 
	C329.694519,152.196426 329.868958,152.123337 330.354309,151.919861 
	C331.933716,150.497009 333.376770,149.327911 334.408173,147.867950 
	C335.075562,146.923203 335.770203,145.132034 335.328674,144.472031 
	C334.662903,143.476746 333.070435,142.859039 331.768829,142.601486 
	C330.533142,142.356979 329.142120,143.000427 327.860046,142.865936 
	C325.299438,142.597321 324.371094,141.370499 325.780487,138.818848 
	C326.404938,137.688293 326.523193,136.278122 326.871216,134.994873 
	C325.191345,134.889893 323.317810,134.256104 321.870575,134.786209 
	C318.500061,136.020798 315.334808,137.815796 311.960144,139.052490 
	C310.019653,133.695206 315.985657,135.010376 317.045563,132.326904 
z"/>
<path fill="#F0D231" opacity="1.000000" stroke="none" 
	d="
M272.801971,141.577972 
	C263.941010,141.577972 255.080032,141.577972 244.662125,141.577972 
	C252.215057,127.259125 259.178314,114.058189 266.586792,101.043167 
	C267.353119,103.491730 267.924561,105.751411 267.951355,108.017540 
	C268.058563,117.082077 268.152374,126.152573 267.922424,135.212524 
	C267.827118,138.966675 268.794159,141.273590 272.801971,141.577972 
z"/>
<path fill="#DFBB33" opacity="1.000000" stroke="none" 
	d="
M257.305908,269.147095 
	C257.303558,274.942322 257.470520,280.268433 257.193115,285.571350 
	C257.112488,287.112335 255.907486,289.715057 254.958878,289.838379 
	C253.370941,290.044800 250.951035,289.122406 249.980835,287.841980 
	C246.811478,283.659210 244.138565,279.100250 240.036194,274.960999 
	C240.036194,279.768707 240.036194,284.576385 240.036194,289.681519 
	C237.676392,289.681519 236.096252,289.681519 234.067810,289.681519 
	C234.067810,280.285248 234.067810,270.935181 234.067810,261.533569 
	C237.554916,260.210724 240.008530,261.002838 241.898422,264.419006 
	C244.206482,268.591064 246.949570,272.522491 250.702820,276.308990 
	C250.702820,271.483368 250.702820,266.657745 250.702820,261.308136 
	C253.098541,261.195953 254.801727,261.116180 257.305878,260.998932 
	C257.305878,263.828430 257.305878,266.248810 257.305908,269.147095 
z"/>
<path fill="#DFBB33" opacity="1.000000" stroke="none" 
	d="
M351.545715,261.381622 
	C355.893188,260.217407 357.394928,261.830414 357.057648,265.842163 
	C356.871216,268.059448 357.240784,270.323486 357.379913,272.947815 
	C364.004700,270.622314 363.265198,259.536133 373.245300,261.404694 
	C371.613800,263.896484 370.371490,265.805206 369.117950,267.706543 
	C363.617249,276.049805 363.673279,273.177765 369.091431,281.838501 
	C370.574524,284.209167 372.142029,286.527008 373.842255,289.131775 
	C364.974915,292.815430 364.901611,283.561310 359.552826,280.213745 
	C358.315552,283.423462 357.215790,286.276337 356.025452,289.364227 
	C351.023163,290.600891 350.659271,290.400604 350.715424,285.024841 
	C350.796997,277.215485 351.026428,269.407715 351.545715,261.381622 
z"/>
<path fill="#F0D231" opacity="1.000000" stroke="none" 
	d="
M315.897156,214.328156 
	C308.018280,211.956757 300.139374,209.585342 291.667267,207.035385 
	C298.333466,197.194443 306.121429,189.548508 315.717865,183.705536 
	C316.000092,194.147781 315.948608,204.237961 315.897156,214.328156 
z"/>
<path fill="#F5C533" opacity="1.000000" stroke="none" 
	d="
M316.158447,214.562469 
	C315.948608,204.237961 316.000092,194.147781 316.050049,183.646729 
	C317.490509,182.227280 318.974304,181.272995 320.365936,180.199249 
	C323.670624,177.649506 326.193573,178.113235 328.050781,182.679184 
	C328.713470,183.914505 329.236725,184.492798 329.760010,185.071075 
	C330.411499,185.855331 331.062958,186.639603 331.421234,187.840988 
	C330.421539,190.123596 329.165741,191.970978 329.103546,193.857712 
	C328.832092,202.088928 328.907379,210.331589 328.856781,218.570084 
	C324.711121,217.312317 320.565430,216.054550 316.158447,214.562469 
z"/>
<path fill="#DFBB33" opacity="1.000000" stroke="none" 
	d="
M209.136017,278.850952 
	C209.135880,272.750183 209.135880,267.127563 209.135880,261.247070 
	C215.884232,261.247070 221.988358,261.247070 228.467743,261.247070 
	C228.467743,262.742889 228.467743,264.120178 228.467743,266.122772 
	C226.039856,266.122772 223.744675,265.977142 221.476440,266.162079 
	C218.999512,266.363953 215.401550,264.725494 215.469101,269.649933 
	C215.532059,274.237640 218.901917,272.568451 221.221680,272.926300 
	C222.188232,273.075348 223.166382,273.149200 224.170166,273.260712 
	C225.496445,277.079590 223.842529,278.188843 220.398743,278.118317 
	C218.226089,278.073792 215.412796,277.330597 215.526596,281.181946 
	C215.633896,284.813202 218.113922,284.908600 220.758270,284.871887 
	C222.257446,284.851105 223.758820,284.920380 225.256454,284.869080 
	C228.931442,284.743195 229.534668,286.512695 228.138672,289.949066 
	C223.901566,289.949066 219.579666,290.212433 215.304138,289.879822 
	C210.385727,289.497162 209.182098,287.163361 209.136017,278.850952 
z"/>
<path fill="#C43920" opacity="1.000000" stroke="none" 
	d="
M221.670074,198.069321 
	C223.103836,199.882019 224.246796,201.861221 225.585175,204.231598 
	C225.273056,206.233200 224.765518,207.843613 224.116791,209.802704 
	C224.702118,213.626862 225.428619,217.102325 226.155106,220.577789 
	C215.548706,224.469986 204.755234,227.611649 193.710068,229.743546 
	C193.513962,229.225784 193.317856,228.708008 193.121750,228.190247 
	C198.330673,225.263580 203.539581,222.336914 209.855652,218.788193 
	C206.977386,218.248749 205.344574,217.942734 202.483948,217.406601 
	C203.661575,215.469009 204.282349,213.723877 205.483261,212.596985 
	C210.689529,207.711472 216.065201,203.006454 221.670074,198.069321 
z"/>
<path fill="#F5C533" opacity="1.000000" stroke="none" 
	d="
M273.153625,141.669189 
	C268.794159,141.273590 267.827118,138.966675 267.922424,135.212524 
	C268.152374,126.152573 268.058563,117.082077 267.951355,108.017540 
	C267.924561,105.751411 267.353119,103.491730 266.845398,100.806412 
	C269.726715,93.133301 273.252441,92.336098 278.049011,98.598724 
	C277.717743,103.153801 277.107635,106.920609 277.052643,110.695496 
	C276.905762,120.773056 276.997437,130.854080 276.994324,140.933731 
	C275.831299,141.209290 274.668274,141.484833 273.153625,141.669189 
z"/>
<path fill="#F3B535" opacity="1.000000" stroke="none" 
	d="
M277.402740,140.980469 
	C276.997437,130.854080 276.905762,120.773056 277.052643,110.695496 
	C277.107635,106.920609 277.717743,103.153801 278.122284,98.920715 
	C281.447632,103.603279 284.725403,108.748444 288.095490,114.624779 
	C287.810028,123.087708 287.432312,130.819473 287.054565,138.551239 
	C283.973450,139.376572 280.892303,140.201889 277.402740,140.980469 
z"/>
<path fill="#F3B535" opacity="1.000000" stroke="none" 
	d="
M329.131226,218.760834 
	C328.907379,210.331589 328.832092,202.088928 329.103546,193.857712 
	C329.165741,191.970978 330.421539,190.123596 331.480621,188.145599 
	C333.857697,190.743423 335.882202,193.453735 338.030457,196.781219 
	C338.660828,197.938965 339.167358,198.479507 339.673920,199.020065 
	C339.673920,199.020065 340.026550,199.278900 340.114319,199.925629 
	C340.464050,205.941376 341.004181,211.320251 340.814301,216.673218 
	C340.759155,218.227219 338.614288,219.707092 337.427399,221.220963 
	C334.753479,220.464508 332.079559,219.708038 329.131226,218.760834 
z"/>
<path fill="#DBB833" opacity="1.000000" stroke="none" 
	d="
M261.465057,265.808746 
	C260.946625,264.270599 260.774536,262.890839 260.534607,260.967346 
	C267.137299,260.967346 273.105286,260.833008 279.057007,261.084534 
	C280.200867,261.132843 281.280731,262.696259 282.390137,263.560699 
	C281.282318,264.416870 280.283569,265.539154 279.034668,266.051147 
	C277.886627,266.521759 276.469299,266.335358 274.646545,266.480042 
	C274.646545,272.814362 274.396484,278.947510 274.725403,285.049438 
	C274.990021,289.958679 272.957062,290.846436 268.251892,289.363495 
	C268.251892,281.870453 268.251892,274.304413 268.251892,266.496643 
	C265.721802,266.288635 263.766602,266.127899 261.465057,265.808746 
z"/>
<path fill="#DFBB33" opacity="1.000000" stroke="none" 
	d="
M292.650055,262.983276 
	C292.685394,268.702362 292.863831,274.021515 292.641357,279.323853 
	C292.473358,283.327301 293.801147,285.032043 298.029114,285.008301 
	C300.367737,284.995148 304.715210,282.955933 304.760406,287.366943 
	C304.811981,292.400940 300.176208,289.814148 297.808746,289.889496 
	C288.009338,290.201599 286.456238,288.495758 286.440369,278.871155 
	C286.430847,273.108948 286.438568,267.346741 286.438568,260.351196 
	C289.094971,261.307190 290.857910,261.941620 292.650055,262.983276 
z"/>
<path fill="#E9A437" opacity="1.000000" stroke="none" 
	d="
M337.706909,221.467987 
	C338.614288,219.707092 340.759155,218.227219 340.814301,216.673218 
	C341.004181,211.320251 340.464050,205.941376 340.161194,200.139282 
	C345.558350,207.243011 351.045898,214.745239 356.367432,222.363449 
	C356.985504,223.248322 357.202087,225.158401 356.658600,225.895630 
	C356.139008,226.600388 354.262573,226.822845 353.194489,226.517044 
	C348.085632,225.054291 343.048798,223.339920 337.706909,221.467987 
z"/>
<path fill="#DBB833" opacity="1.000000" stroke="none" 
	d="
M315.626099,274.018494 
	C315.626129,277.991028 315.386292,281.490326 315.684509,284.943176 
	C316.092773,289.669769 314.141479,290.886108 309.612457,289.545959 
	C309.612457,280.147217 309.612457,270.803101 309.612457,261.218140 
	C311.547729,261.218140 313.151550,261.218140 315.626129,261.218140 
	C315.626129,265.415497 315.626129,269.470001 315.626099,274.018494 
z"/>
<path fill="#DD6F22" opacity="1.000000" stroke="none" 
	d="
M324.033386,158.114990 
	C325.176208,160.344986 326.319061,162.574997 327.791260,164.927734 
	C321.862762,170.188477 315.604889,175.326492 308.788818,180.589203 
	C307.154907,178.588898 306.079254,176.463867 305.278259,174.140137 
	C307.027588,172.575226 308.502258,171.209045 310.302368,169.777222 
	C312.205719,168.251999 313.863434,166.868393 315.343140,165.315216 
	C317.620483,162.924805 319.775665,160.418030 321.991852,157.980835 
	C322.001038,158.001038 321.964752,157.975464 322.270172,158.187317 
	C323.061523,158.304443 323.547455,158.209717 324.033386,158.114990 
z"/>
<path fill="#C43920" opacity="1.000000" stroke="none" 
	d="
M215.520508,150.127991 
	C213.092865,150.529663 210.275192,150.610718 207.522964,151.077515 
	C206.062500,151.325241 204.715576,152.242340 203.317398,152.857254 
	C204.355118,154.101868 205.392853,155.346481 206.719574,156.801331 
	C195.556763,155.989120 184.871460,152.708191 175.265884,146.269440 
	C188.563156,147.502197 201.860413,148.734970 215.520508,150.127991 
z"/>
<path fill="#E16720" opacity="1.000000" stroke="none" 
	d="
M305.003571,174.338852 
	C306.079254,176.463867 307.154907,178.588898 308.532593,180.831482 
	C302.164215,185.282578 295.493835,189.616089 288.147888,193.877579 
	C286.288666,191.798325 285.105042,189.791092 284.142517,187.536407 
	C288.733063,184.664993 293.131561,182.087784 297.460938,179.399307 
	C300.031433,177.803101 302.493011,176.031570 305.003571,174.338852 
z"/>
<path fill="#DD6F22" opacity="1.000000" stroke="none" 
	d="
M316.689941,132.437531 
	C315.985657,135.010376 310.019653,133.695206 311.752258,139.305634 
	C307.448425,141.814087 303.226318,143.738144 298.630981,145.775681 
	C293.839417,147.225235 289.421021,148.561325 285.002045,149.520569 
	C284.390320,147.213272 283.779175,145.282837 283.168030,143.352402 
	C294.223450,139.750977 305.278900,136.149567 316.689941,132.437531 
z"/>
<path fill="#DA5720" opacity="1.000000" stroke="none" 
	d="
M283.921417,187.783844 
	C285.105042,189.791092 286.288666,191.798325 287.799927,193.931778 
	C280.733948,197.727768 273.340332,201.397552 265.288910,204.893555 
	C263.759338,202.589844 262.887512,200.459930 262.312622,198.115265 
	C269.713501,194.528305 276.817474,191.156082 283.921417,187.783844 
z"/>
<path fill="#D54F20" opacity="1.000000" stroke="none" 
	d="
M232.987839,156.088257 
	C232.994171,154.686630 233.000504,153.284988 233.287643,151.444077 
	C234.378448,150.685211 235.188446,150.365616 235.998459,150.046021 
	C243.683243,149.273376 251.368011,148.500717 259.511292,148.198120 
	C260.311401,150.754272 260.652985,152.840393 260.586121,155.047836 
	C251.114395,155.475540 242.051117,155.781891 232.987839,156.088257 
z"/>
<path fill="#DD5E20" opacity="1.000000" stroke="none" 
	d="
M260.994568,154.926498 
	C260.652985,152.840393 260.311401,150.754272 259.956879,148.261932 
	C260.793152,147.649506 261.642334,147.443329 263.025055,147.415085 
	C264.372375,147.349396 265.186157,147.105789 265.999969,146.862198 
	C266.779114,146.661575 267.558289,146.460953 268.893005,146.395325 
	C269.960663,146.350449 270.472748,146.170563 270.984833,145.990692 
	C271.765472,145.749390 272.546112,145.508072 273.887726,145.393768 
	C274.958099,145.341324 275.467499,145.161880 275.976898,144.982437 
	C278.100037,144.418549 280.223145,143.854660 282.757141,143.321579 
	C283.779175,145.282837 284.390320,147.213272 284.649658,149.689148 
	C276.530090,151.798569 268.762329,153.362534 260.994568,154.926498 
z"/>
<path fill="#D54F20" opacity="1.000000" stroke="none" 
	d="
M262.015717,198.330017 
	C262.887512,200.459930 263.759338,202.589844 264.925568,204.922409 
	C258.398651,208.068237 251.577316,211.011429 244.295319,213.605057 
	C243.158127,210.988693 242.481583,208.721893 242.115234,206.301514 
	C248.955536,203.541946 255.485626,200.935974 262.015717,198.330017 
z"/>
<path fill="#CC4620" opacity="1.000000" stroke="none" 
	d="
M241.805054,206.455078 
	C242.481583,208.721893 243.158127,210.988693 243.920059,213.630234 
	C238.314484,216.142273 232.623520,218.279556 226.543839,220.497314 
	C225.428619,217.102325 224.702118,213.626862 224.427200,210.016495 
	C226.743378,209.989670 228.719330,210.545181 230.449921,210.114609 
	C234.300125,209.156677 238.027573,207.705322 241.805054,206.455078 
z"/>
<path fill="#E9A437" opacity="1.000000" stroke="none" 
	d="
M287.409607,138.479874 
	C287.432312,130.819473 287.810028,123.087708 288.174011,114.951126 
	C292.016205,120.484917 295.872162,126.423523 300.329010,133.287598 
	C295.802338,135.132553 291.783508,136.770538 287.409607,138.479874 
z"/>
<path fill="#C43920" opacity="1.000000" stroke="none" 
	d="
M235.596222,149.946381 
	C235.188446,150.365616 234.378448,150.685211 233.295975,151.023743 
	C231.616455,150.907440 230.209381,150.772202 228.486954,150.493271 
	C230.512390,150.181976 232.853180,150.014374 235.596222,149.946381 
z"/>
<path fill="#D54F20" opacity="1.000000" stroke="none" 
	d="
M265.709564,146.784424 
	C265.186157,147.105789 264.372375,147.349396 263.355774,147.469543 
	C263.908386,147.132935 264.663788,146.919800 265.709564,146.784424 
z"/>
<path fill="#E9A437" opacity="1.000000" stroke="none" 
	d="
M339.633209,198.737366 
	C339.167358,198.479507 338.660828,197.938965 338.116669,197.108719 
	C338.583557,197.364227 339.088013,197.909439 339.633209,198.737366 
z"/>
<path fill="#D54F20" opacity="1.000000" stroke="none" 
	d="
M275.742004,144.904099 
	C275.467499,145.161880 274.958099,145.341324 274.299744,145.418793 
	C274.602875,145.153137 275.054962,144.989456 275.742004,144.904099 
z"/>
<path fill="#F3B535" opacity="1.000000" stroke="none" 
	d="
M329.721008,184.772598 
	C329.236725,184.492798 328.713470,183.914505 328.148743,183.032272 
	C328.632202,183.310257 329.157104,183.892181 329.721008,184.772598 
z"/>
<path fill="#C43920" opacity="1.000000" stroke="none" 
	d="
M209.455872,157.454712 
	C210.005463,157.386948 210.713623,157.525467 211.722290,157.866470 
	C211.220001,157.932968 210.417206,157.796982 209.455872,157.454712 
z"/>
<path fill="#D54F20" opacity="1.000000" stroke="none" 
	d="
M270.748413,145.911560 
	C270.472748,146.170563 269.960663,146.350449 269.298187,146.429291 
	C269.602539,146.162979 270.057251,145.997711 270.748413,145.911560 
z"/>
<path fill="#1D2839" opacity="1.000000" stroke="none" 
	d="
M242.115234,206.301498 
	C238.027573,207.705322 234.300125,209.156677 230.449921,210.114609 
	C228.719330,210.545181 226.743378,209.989670 224.568359,209.667816 
	C224.765518,207.843613 225.273056,206.233200 225.927917,204.324295 
	C232.576218,198.171646 238.487991,191.937149 239.814087,181.969910 
	C239.525467,179.123398 239.235352,177.048920 238.971115,174.987900 
	C238.996994,175.001373 238.976761,174.946716 239.361450,174.957367 
	C244.724075,179.050034 243.170761,184.431946 242.211197,189.399673 
	C241.540680,192.870987 239.737671,196.123566 237.783356,201.170990 
	C245.422913,198.364532 251.805145,196.019958 258.566040,193.593903 
	C263.773346,191.429657 268.601990,189.346909 273.773254,187.210403 
	C278.093781,185.167999 282.071716,183.179352 286.405212,181.130249 
	C293.197754,177.057129 299.634766,173.044449 306.323975,168.944321 
	C306.994904,168.544128 307.413605,168.231384 308.120117,168.021179 
	C308.930908,168.696777 309.453918,169.269806 309.976929,169.842850 
	C308.502258,171.209045 307.027588,172.575226 305.278259,174.140137 
	C302.493011,176.031570 300.031433,177.803101 297.460938,179.399307 
	C293.131561,182.087784 288.733063,184.664993 284.142517,187.536407 
	C276.817474,191.156082 269.713501,194.528305 262.312622,198.115265 
	C255.485626,200.935974 248.955536,203.541946 242.115234,206.301498 
M237.789658,200.475830 
	C237.789658,200.475830 237.552368,200.370941 237.552368,200.370941 
	C237.552368,200.370941 237.607590,200.607071 237.789658,200.475830 
z"/>
<path fill="#D54F20" opacity="1.000000" stroke="none" 
	d="
M238.945236,174.974426 
	C239.235352,177.048920 239.525467,179.123398 239.752411,181.591141 
	C238.553741,181.163940 236.818207,180.581314 236.383041,179.483307 
	C234.083771,173.681900 232.111969,167.750717 230.477966,161.389862 
	C236.282349,160.863876 241.635391,160.812561 246.999237,161.178177 
	C247.699005,164.121918 248.221466,166.708786 249.107361,169.164536 
	C252.063858,177.360138 255.150558,185.508774 258.187378,193.675385 
	C251.805145,196.019958 245.422913,198.364532 237.783356,201.170990 
	C239.737671,196.123566 241.540680,192.870987 242.211197,189.399673 
	C243.170761,184.431946 244.724075,179.050034 239.341949,174.631058 
	C238.296219,173.522949 237.654709,172.751785 236.980225,171.931183 
	C236.947235,171.881744 236.978973,172.014542 237.007996,172.339752 
	C237.673096,173.434799 238.309158,174.204605 238.945236,174.974426 
z"/>
<path fill="#312E37" opacity="1.000000" stroke="none" 
	d="
M246.988419,160.761230 
	C241.635391,160.812561 236.282349,160.863876 230.468079,160.996658 
	C229.081680,160.101349 228.156509,159.124603 227.231354,158.147842 
	C228.890167,157.495895 230.548981,156.843948 232.597809,156.140106 
	C242.051117,155.781891 251.114395,155.475540 260.586121,155.047836 
	C268.762329,153.362534 276.530090,151.798569 284.650238,150.066010 
	C289.421021,148.561325 293.839417,147.225235 298.693817,146.188721 
	C299.123169,147.044785 299.116516,147.601288 298.875885,148.281128 
	C298.034637,148.756668 297.427399,149.108871 296.434875,149.504623 
	C290.012238,151.557159 283.974792,153.566132 277.528076,155.572266 
	C272.078430,156.703964 267.038116,157.838501 261.582458,158.965271 
	C256.440887,159.558731 251.714645,160.159988 246.988419,160.761230 
z"/>
<path fill="#E57321" opacity="1.000000" stroke="none" 
	d="
M296.820129,149.461060 
	C297.427399,149.108871 298.034637,148.756668 299.252808,148.262695 
	C307.053619,145.002640 314.243500,141.884354 321.886505,138.569565 
	C322.501160,146.126297 327.742218,145.525299 333.514099,145.185349 
	C331.480011,147.583313 330.136932,149.166656 328.654938,151.103333 
	C328.677673,151.651398 328.839294,151.846161 329.000946,152.040909 
	C329.000946,152.040909 329.002472,151.985794 328.642059,151.846710 
	C327.850098,152.318359 327.418579,152.929108 326.987030,153.539841 
	C326.469757,153.795792 325.952484,154.051743 324.813843,154.587448 
	C324.129456,155.598801 324.066406,156.330399 324.003326,157.061996 
	C324.003326,157.061996 323.989136,157.009933 323.753052,156.629623 
	C322.999573,156.824707 322.482178,157.400085 321.964752,157.975464 
	C321.964752,157.975464 322.001038,158.001038 321.670471,157.765991 
	C316.837372,160.993500 312.334839,164.456055 307.832306,167.918625 
	C307.413605,168.231384 306.994904,168.544128 305.982391,168.846741 
	C302.532440,162.378098 299.676270,155.919586 296.820129,149.461060 
z"/>
<path fill="#6A4930" opacity="1.000000" stroke="none" 
	d="
M328.793854,150.750000 
	C330.136932,149.166656 331.480011,147.583313 333.514099,145.185349 
	C327.742218,145.525299 322.501160,146.126297 321.886505,138.569565 
	C314.243500,141.884354 307.053619,145.002640 299.486786,148.139343 
	C299.116516,147.601288 299.123169,147.044785 299.067017,146.075256 
	C303.226318,143.738144 307.448425,141.814087 311.878479,139.636871 
	C315.334808,137.815796 318.500061,136.020798 321.870575,134.786209 
	C323.317810,134.256104 325.191345,134.889893 326.871216,134.994873 
	C326.523193,136.278122 326.404938,137.688293 325.780487,138.818848 
	C324.371094,141.370499 325.299438,142.597321 327.860046,142.865936 
	C329.142120,143.000427 330.533142,142.356979 331.768829,142.601486 
	C333.070435,142.859039 334.662903,143.476746 335.328674,144.472031 
	C335.770203,145.132034 335.075562,146.923203 334.408173,147.867950 
	C333.376770,149.327911 331.933716,150.497009 330.168030,151.683121 
	C329.378479,151.301193 329.086182,151.025604 328.793854,150.750000 
z"/>
<path fill="#312E37" opacity="1.000000" stroke="none" 
	d="
M327.368286,153.636353 
	C327.418579,152.929108 327.850098,152.318359 328.669525,151.844315 
	C328.621460,152.564957 328.185486,153.148895 327.368286,153.636353 
z"/>
<path fill="#312E37" opacity="1.000000" stroke="none" 
	d="
M322.270172,158.187317 
	C322.482178,157.400085 322.999573,156.824707 323.779938,156.627426 
	C324.067780,157.190674 324.092682,157.375793 324.075470,157.837952 
	C323.547455,158.209717 323.061523,158.304443 322.270172,158.187317 
z"/>
<path fill="#312E37" opacity="1.000000" stroke="none" 
	d="
M324.428070,156.867798 
	C324.066406,156.330399 324.129456,155.598801 324.606293,154.652771 
	C324.964325,155.183426 324.908569,155.928513 324.428070,156.867798 
z"/>
<path fill="#312E37" opacity="1.000000" stroke="none" 
	d="
M328.654938,151.103333 
	C329.086182,151.025604 329.378479,151.301193 329.857117,151.813522 
	C329.868958,152.123337 329.694519,152.196426 329.260529,152.155212 
	C328.839294,151.846161 328.677673,151.651398 328.654938,151.103333 
z"/>
<path fill="#312E37" opacity="1.000000" stroke="none" 
	d="
M308.120117,168.021179 
	C312.334839,164.456055 316.837372,160.993500 321.661285,157.745789 
	C319.775665,160.418030 317.620483,162.924805 315.343140,165.315216 
	C313.863434,166.868393 312.205719,168.251999 310.302368,169.777222 
	C309.453918,169.269806 308.930908,168.696777 308.120117,168.021179 
z"/>
<path fill="#E16720" opacity="1.000000" stroke="none" 
	d="
M296.434875,149.504623 
	C299.676270,155.919586 302.532440,162.378098 305.730164,168.934204 
	C299.634766,173.044449 293.197754,177.057129 286.368713,180.734283 
	C285.222473,178.050964 284.473755,175.701385 283.713074,173.355698 
	C281.790710,167.427902 279.862976,161.501862 277.937378,155.575119 
	C283.974792,153.566132 290.012238,151.557159 296.434875,149.504623 
z"/>
<path fill="#DA5720" opacity="1.000000" stroke="none" 
	d="
M246.999237,161.178177 
	C251.714645,160.159988 256.440887,159.558731 261.586090,159.374237 
	C264.927673,167.995544 267.794800,176.220764 270.837097,184.380661 
	C271.257233,185.507523 272.544708,186.310974 273.430634,187.264160 
	C268.601990,189.346909 263.773346,191.429657 258.566040,193.593903 
	C255.150558,185.508774 252.063858,177.360138 249.107361,169.164536 
	C248.221466,166.708786 247.699005,164.121918 246.999237,161.178177 
z"/>
<path fill="#DD5E20" opacity="1.000000" stroke="none" 
	d="
M273.773254,187.210403 
	C272.544708,186.310974 271.257233,185.507523 270.837097,184.380661 
	C267.794800,176.220764 264.927673,167.995544 262.001434,159.382019 
	C267.038116,157.838501 272.078430,156.703964 277.528076,155.572266 
	C279.862976,161.501862 281.790710,167.427902 283.713074,173.355698 
	C284.473755,175.701385 285.222473,178.050964 286.013153,180.794724 
	C282.071716,183.179352 278.093781,185.167999 273.773254,187.210403 
z"/>
<path fill="#D54F20" opacity="1.000000" stroke="none" 
	d="
M237.698624,200.541443 
	C237.607590,200.607071 237.552368,200.370941 237.552368,200.370941 
	C237.552368,200.370941 237.789658,200.475830 237.698624,200.541443 
z"/>
<path fill="#CC4620" opacity="1.000000" stroke="none" 
	d="
M237.013199,171.980621 
	C237.654709,172.751785 238.296219,173.522949 238.957245,174.620407 
	C238.976761,174.946716 238.996994,175.001373 238.971115,174.987900 
	C238.309158,174.204605 237.673096,173.434799 237.017853,172.332458 
	C236.998672,171.999954 237.013199,171.980621 237.013199,171.980621 
z"/>
<path fill="#CC4620" opacity="1.000000" stroke="none" 
	d="
M236.988831,172.007248 
	C236.978973,172.014542 236.947235,171.881744 236.980225,171.931183 
	C237.013199,171.980621 236.998672,171.999954 236.988831,172.007248 
z"/>
</svg>